<?xml version="1.0" standalone="no"?>
<!DOCTYPE svg PUBLIC "-//W3C//DTD SVG 20010904//EN"
 "http://www.w3.org/TR/2001/REC-SVG-20010904/DTD/svg10.dtd">
<svg version="1.0" xmlns="http://www.w3.org/2000/svg"
 width="1254.000000pt" height="1254.000000pt" viewBox="0 0 1254.000000 1254.000000"
 preserveAspectRatio="xMidYMid meet">

<g transform="translate(0.000000,1254.000000) scale(0.100000,-0.100000)"
fill="#000000" stroke="none">
<path d="M4045 12409 c-627 -4 -1158 -10 -1180 -13 -22 -4 -103 -16 -180 -27
-812 -118 -1552 -604 -2005 -1318 -217 -341 -339 -678 -407 -1121 -16 -108
-18 -332 -21 -3575 -2 -2474 0 -3491 8 -3570 91 -907 627 -1711 1446 -2169
335 -188 700 -300 1129 -348 174 -19 6704 -19 6874 0 397 45 738 146 1061 314
572 297 1051 811 1301 1393 95 222 152 423 196 690 17 105 18 277 18 3630 l0
3520 -23 145 c-77 485 -251 903 -532 1279 -395 529 -944 901 -1580 1069 -232
62 -442 90 -720 98 -292 8 -4081 10 -5385 3z m2176 -823 c16 -1 29 1 29 5 0 4
14 4 31 -1 17 -5 34 -9 38 -8 28 3 62 -5 75 -17 8 -8 19 -15 25 -15 12 0 98
-80 100 -92 0 -5 1 -12 1 -18 0 -5 5 -9 11 -7 5 1 21 -17 33 -40 13 -23 27
-39 32 -35 4 4 2 -2 -6 -13 -8 -11 -10 -17 -6 -13 11 9 46 -53 38 -67 -3 -5
-2 -7 2 -3 10 8 36 -14 29 -24 -2 -5 1 -8 7 -8 6 0 8 -4 5 -10 -3 -5 -2 -10 3
-10 9 0 26 -55 23 -73 -1 -4 6 -10 14 -13 8 -4 15 -12 15 -19 0 -7 3 -15 8
-17 4 -1 18 -16 31 -33 12 -16 25 -29 27 -27 12 7 23 0 29 -19 4 -11 9 -18 12
-15 4 3 13 1 20 -6 11 -9 17 -9 24 3 8 10 9 9 4 -7 -5 -20 5 -31 40 -40 6 -1
19 -6 29 -10 14 -5 17 -4 12 5 -5 8 5 5 25 -5 19 -10 38 -17 43 -16 4 2 14 -2
22 -9 8 -6 30 -12 51 -14 32 -2 52 -16 41 -28 -5 -5 30 -37 41 -37 5 0 13 -4
16 -10 3 -6 -1 -7 -12 -4 -17 5 -17 5 0 -6 9 -6 21 -9 25 -6 4 2 14 0 22 -6
12 -8 11 -9 -4 -4 -16 5 -17 4 -7 -8 7 -8 19 -12 27 -9 8 3 14 0 14 -7 0 -7 8
-20 18 -29 9 -9 18 -32 20 -51 5 -55 8 -75 14 -86 7 -11 4 -93 -4 -114 -3 -8
-11 -35 -19 -60 -7 -25 -17 -51 -23 -59 -8 -11 -8 -13 2 -7 19 11 -34 -63 -66
-93 -41 -39 -67 -58 -58 -43 12 20 -8 14 -24 -8 -8 -11 -20 -20 -27 -20 -7 0
-13 -4 -13 -10 0 -5 -9 -10 -19 -10 -11 0 -23 -4 -26 -10 -3 -5 -17 -10 -31
-10 -14 0 -22 -4 -19 -10 6 -9 -8 -14 -28 -11 -14 2 -107 -31 -113 -40 -3 -5
-10 -7 -15 -4 -5 4 -9 1 -9 -5 0 -7 -6 -10 -14 -7 -15 6 -56 -18 -69 -40 -4
-7 -17 -18 -29 -24 -16 -9 -19 -8 -13 3 3 7 -1 4 -10 -7 -9 -11 -18 -30 -22
-42 -3 -13 -10 -23 -16 -23 -6 0 -7 -3 -4 -7 4 -3 2 -12 -4 -20 -6 -7 -8 -13
-3 -13 5 0 4 -4 -2 -8 -6 -4 -14 -29 -18 -57 -8 -69 -22 -114 -43 -138 -13
-14 -14 -18 -3 -12 12 6 13 5 3 -6 -7 -7 -13 -26 -13 -41 0 -15 -6 -28 -12
-29 -9 0 -9 -2 1 -6 9 -4 10 -7 2 -12 -6 -4 -13 -29 -15 -55 -2 -26 -7 -50
-10 -53 -3 -4 -6 -13 -6 -22 0 -14 2 -14 10 -1 5 8 12 11 15 8 4 -4 -2 -12
-13 -19 -12 -7 -17 -19 -14 -31 2 -10 -1 -18 -7 -18 -7 0 -11 -6 -10 -12 1 -7
-2 -31 -6 -53 -5 -22 -10 -44 -10 -50 -1 -5 -3 -12 -4 -15 -7 -14 -6 -58 1
-54 8 5 6 -12 -7 -58 -13 -51 -22 -29 -24 59 -1 48 -4 89 -6 92 -3 2 -5 -100
-5 -227 0 -128 3 -232 8 -232 4 0 70 -9 147 -20 251 -37 464 -97 654 -186 52
-24 95 -43 96 -42 1 2 14 39 29 83 86 251 255 517 418 656 127 109 278 191
423 230 113 31 326 31 437 1 422 -114 763 -497 857 -960 109 -536 -104 -1051
-544 -1310 -128 -75 -295 -128 -430 -136 -88 -6 -83 -1 10 10 33 4 52 9 43 11
-11 3 -15 10 -12 21 4 11 3 13 -3 6 -4 -6 -24 -10 -43 -9 -19 1 -38 -3 -42 -9
-5 -8 -8 -7 -8 2 0 8 -14 27 -30 44 -17 16 -28 34 -24 39 3 5 0 9 -5 9 -6 0
-11 7 -11 15 0 10 11 15 38 16 33 1 34 2 12 9 -14 4 -19 8 -12 9 6 1 12 14 12
30 0 17 4 33 10 36 6 4 4 15 -5 29 -9 13 -13 30 -10 39 4 8 2 18 -4 22 -6 3
-11 17 -11 31 0 14 -4 22 -10 19 -7 -4 -7 2 -1 18 8 20 6 29 -10 43 -14 13
-16 20 -8 25 9 5 9 15 -3 39 -17 34 -13 74 6 63 6 -3 7 -2 3 3 -5 5 -13 10
-18 10 -5 1 -12 2 -15 3 -4 0 -1 7 5 15 8 10 6 19 -9 39 -22 27 -26 42 -10 32
6 -4 5 5 -2 19 -6 14 -14 26 -18 26 -4 0 -7 7 -7 15 0 8 4 12 9 9 4 -3 8 10 8
28 0 26 -3 30 -11 18 -7 -11 -9 -7 -5 18 4 27 2 32 -11 28 -13 -5 -14 -4 -3 9
11 13 10 14 -5 9 -11 -5 -16 -4 -12 3 3 5 -3 19 -13 31 -14 15 -20 35 -20 70
0 26 -5 53 -12 60 -8 8 -8 15 3 28 9 12 10 15 2 10 -7 -4 -13 -2 -13 3 0 6 5
11 12 11 6 0 8 3 5 6 -4 4 -13 1 -21 -5 -13 -11 -15 -9 -11 8 3 14 -1 21 -13
22 -10 0 -12 3 -5 6 10 3 10 10 1 26 -10 21 -10 21 7 7 17 -14 17 -14 1 20 -9
19 -22 44 -28 55 -10 18 -10 19 6 6 9 -8 19 -11 23 -7 3 3 1 6 -5 6 -7 0 -12
7 -12 15 0 8 5 15 10 15 6 0 10 5 10 12 0 6 -3 9 -6 5 -3 -3 -14 2 -25 11 -17
15 -18 18 -4 28 14 10 13 16 -6 48 -17 29 -19 39 -9 51 10 12 10 15 -1 15 -11
0 -11 2 1 10 8 5 11 10 7 10 -4 0 -3 9 3 20 7 14 7 20 0 20 -5 0 -10 -5 -10
-12 0 -6 -3 -8 -6 -5 -9 8 16 38 25 32 4 -2 8 2 8 10 0 18 -9 19 -23 5 -7 -7
-11 -6 -11 5 0 8 7 15 14 15 8 0 11 5 8 10 -4 6 -2 17 4 24 7 8 10 20 9 27 -2
8 4 13 12 11 12 -3 12 -1 3 9 -9 9 -9 17 -2 32 8 14 8 18 0 13 -6 -4 -11 -3
-11 2 0 5 9 12 21 15 11 3 19 11 18 19 -4 32 2 58 14 55 6 -1 11 4 9 12 -2 7
7 24 18 36 12 13 20 29 18 37 -2 7 1 14 6 15 5 1 14 12 21 25 6 13 17 22 23
21 6 -2 9 4 5 13 -4 11 0 15 13 12 14 -2 19 3 18 19 0 12 3 20 7 17 9 -5 42
41 45 63 2 8 6 18 10 21 4 4 5 0 1 -10 -3 -9 -1 -15 6 -14 23 3 38 18 33 32
-6 16 24 16 35 0 4 -4 15 6 25 22 13 24 21 29 34 22 11 -6 24 -4 38 6 12 8 26
13 31 9 5 -3 13 0 16 6 4 5 13 8 21 5 8 -3 14 -1 14 5 0 6 6 7 13 2 6 -4 35
-8 64 -8 45 -1 49 1 35 12 -31 25 52 -13 115 -51 38 -25 48 -28 28 -11 -44 37
-150 90 -228 114 -147 45 -275 37 -407 -26 -104 -49 -218 -165 -279 -281 -100
-193 -143 -394 -156 -727 l-6 -150 72 -90 c135 -167 247 -359 366 -625 75
-168 244 -664 269 -792 15 -77 19 -88 38 -88 11 0 71 -5 131 -10 242 -22 458
-62 647 -121 114 -35 128 -49 19 -19 -182 51 -464 96 -722 115 l-86 7 -6 -174
c-3 -95 -9 -184 -12 -198 -6 -25 -4 -25 132 -58 158 -39 343 -100 488 -162
119 -51 242 -112 270 -135 11 -9 -2 -5 -30 9 -92 44 -289 124 -410 166 -123
42 -411 120 -444 120 -15 0 -24 -16 -41 -67 -28 -88 -72 -183 -122 -266 -42
-69 -41 -69 -78 -39 -3 3 4 2 15 -2 16 -4 25 1 38 24 14 23 15 28 4 24 -9 -3
-17 3 -20 18 l-7 23 -26 -28 c-14 -15 -23 -34 -20 -42 3 -9 0 -12 -9 -8 -8 3
-13 8 -11 12 2 3 -9 6 -26 7 -21 1 12 -20 119 -76 254 -132 428 -250 616 -417
92 -82 82 -87 -14 -7 -179 149 -385 286 -576 382 -62 32 -181 74 -159 57 11
-8 23 -15 27 -15 3 0 4 -12 1 -26 -3 -18 -7 -22 -13 -13 -6 10 -13 9 -30 -6
-19 -17 -21 -17 -16 -3 3 10 0 19 -9 22 -10 4 -13 1 -9 -7 4 -6 -1 -3 -11 8
-13 16 -16 17 -11 3 3 -10 2 -20 -4 -23 -5 -4 -6 -11 -3 -17 4 -7 2 -8 -4 -4
-7 4 -12 2 -12 -5 0 -7 -3 -10 -6 -6 -4 3 -13 -1 -22 -9 -12 -13 -13 -17 -3
-24 9 -5 10 -10 3 -14 -6 -3 -13 3 -17 14 -8 24 -28 26 -45 5 -7 -8 -16 -13
-20 -10 -9 6 -37 -24 -42 -45 -5 -24 -42 -50 -50 -37 -6 9 -8 8 -8 -2 0 -7 -6
-11 -15 -7 -8 3 -21 -4 -30 -17 -8 -12 -15 -18 -15 -14 0 4 -12 0 -26 -9 -19
-13 -22 -19 -12 -25 10 -7 9 -9 -4 -9 -10 0 -18 -4 -18 -9 0 -5 -13 -7 -30 -5
-19 3 -30 1 -30 -6 0 -7 -7 -10 -15 -6 -8 3 -15 1 -15 -5 0 -6 -5 -7 -12 -3
-6 4 -8 3 -5 -3 9 -15 -14 -31 -41 -28 -13 1 -21 -3 -19 -9 3 -7 -3 -12 -13
-12 -10 0 -16 4 -14 8 14 23 -44 -7 -68 -35 -10 -11 -18 -16 -18 -11 0 6 6 16
13 24 6 8 0 5 -14 -8 -14 -12 -29 -19 -34 -15 -4 5 -5 3 -1 -4 4 -8 -3 -15
-21 -19 -15 -4 -31 -12 -35 -18 -6 -8 -11 -6 -18 4 -6 9 -10 10 -10 3 0 -8
-15 -11 -41 -10 -40 3 -66 -13 -54 -32 4 -7 0 -8 -11 -4 -10 4 -22 0 -30 -11
-10 -14 -16 -15 -33 -7 -18 10 -20 9 -14 -6 6 -16 5 -17 -12 -3 -17 14 -18 13
-12 -2 5 -14 2 -15 -24 -6 -21 7 -33 7 -44 -2 -8 -6 -19 -9 -24 -6 -5 4 -13 2
-16 -4 -4 -6 -15 -8 -25 -5 -10 3 -21 1 -25 -5 -3 -5 -15 -15 -25 -20 -16 -9
-18 -8 -13 6 5 13 3 15 -7 9 -7 -4 -29 -8 -48 -7 -20 1 -41 -3 -49 -9 -7 -6
-20 -9 -28 -5 -8 3 -15 2 -15 -3 0 -5 -9 -11 -20 -14 -11 -3 -20 0 -20 5 0 7
-5 7 -13 -1 -7 -6 -28 -9 -45 -7 -37 5 -72 -3 -72 -16 0 -5 5 -6 10 -3 6 3 10
1 10 -4 0 -14 -17 -14 -25 -1 -3 6 -15 10 -25 10 -10 0 -24 8 -29 18 -7 12
-10 13 -11 3 0 -11 -5 -10 -20 4 -11 10 -20 14 -20 10 0 -4 -8 -1 -17 7 -19
16 -54 32 -65 30 -4 -1 -20 21 -37 48 -17 28 -32 50 -34 50 -2 0 21 -50 50
-110 148 -310 258 -647 352 -1088 31 -141 54 -205 78 -217 12 -6 28 -17 36
-24 12 -9 21 -10 36 -2 11 6 39 10 63 10 34 -2 36 -3 13 -6 -32 -5 -60 -23
-35 -23 8 0 2 -7 -13 -15 -16 -8 -33 -14 -39 -12 -6 1 -33 -27 -60 -62 -26
-35 -48 -58 -48 -51 0 13 25 49 73 105 27 30 29 47 2 25 -12 -10 -16 -8 -24
11 -8 22 -9 20 -21 -21 -6 -25 -23 -67 -37 -93 -13 -26 -22 -55 -19 -63 3 -8
2 -13 -3 -10 -5 3 -42 -49 -82 -117 -73 -122 -96 -156 -84 -127 4 11 -1 16
-15 16 -11 0 -20 -4 -20 -9 0 -5 -6 -7 -12 -4 -7 2 -23 0 -35 -4 -16 -6 -22
-5 -20 4 1 7 -10 13 -26 15 -15 2 -25 8 -22 13 4 5 1 9 -5 9 -17 0 -125 112
-125 130 0 9 -8 14 -18 12 -12 -2 -15 2 -11 13 4 9 -1 24 -10 34 -9 10 -13 20
-10 24 4 3 -3 21 -14 39 -17 30 -34 79 -31 93 0 4 -6 16 -13 28 -8 12 -16 45
-18 72 -6 106 -8 130 -10 130 -1 0 -3 30 -6 67 -2 37 -7 82 -9 100 -7 38 -12
107 -19 233 -9 145 -18 225 -27 231 -5 3 -9 69 -9 148 0 130 2 147 24 189 13
26 19 47 14 47 -15 0 -38 66 -38 110 0 22 7 56 14 75 13 31 13 35 0 35 -9 0
-14 10 -14 30 0 35 -17 41 -22 8 -2 -16 -10 -23 -24 -22 l-22 0 22 -29 c16
-22 21 -43 21 -94 0 -57 -3 -67 -25 -84 -14 -10 -38 -19 -55 -20 -32 -1 -28
-3 18 -13 21 -5 33 -18 48 -51 17 -39 19 -58 13 -172 -3 -70 -8 -131 -10 -134
-2 -4 -8 -67 -14 -140 -6 -74 -12 -147 -14 -164 -4 -29 -14 -221 -21 -391 -2
-45 -8 -90 -13 -101 -6 -11 -7 -25 -2 -33 5 -8 5 -19 0 -25 -5 -6 -11 -23 -14
-39 -3 -16 -11 -36 -18 -45 -8 -9 -20 -29 -27 -46 -30 -70 -67 -141 -83 -158
-9 -11 -14 -25 -11 -33 3 -8 0 -14 -5 -14 -12 0 -49 -49 -54 -70 -2 -8 -13
-23 -25 -33 -13 -10 -23 -25 -23 -34 0 -9 -6 -13 -15 -9 -8 3 -15 2 -15 -2 0
-5 -15 -24 -33 -45 -31 -33 -35 -35 -50 -19 -10 9 -17 12 -17 6 0 -5 24 -37
53 -69 28 -33 47 -56 41 -52 -7 4 -17 0 -24 -8 -7 -8 -18 -15 -24 -15 -7 0
-28 -16 -49 -35 -26 -24 -35 -40 -30 -52 6 -15 4 -16 -9 -5 -13 11 -17 9 -23
-15 -8 -34 -24 -55 -36 -47 -5 3 -9 2 -8 -3 1 -4 -2 -18 -6 -30 -5 -16 -11
-20 -22 -15 -10 6 -24 0 -44 -19 -17 -15 -36 -26 -43 -23 -19 7 -32 -16 -15
-27 9 -6 10 -9 2 -9 -6 0 -19 7 -27 16 -14 14 -18 14 -31 1 -13 -14 -19 -13
-54 6 -21 11 -49 36 -62 55 -24 35 -26 42 -31 77 -2 11 -6 22 -9 25 -16 14
-28 128 -24 245 5 148 9 184 35 298 43 191 51 206 143 279 63 49 69 65 138
358 61 260 83 341 148 533 57 167 106 287 156 388 39 76 45 100 15 54 -11 -16
-24 -30 -29 -30 -6 0 -20 -11 -32 -24 -21 -23 -23 -23 -30 -5 -6 17 -8 17 -14
2 -4 -10 -15 -15 -28 -13 -11 3 -26 0 -33 -6 -7 -5 -15 -6 -18 -1 -3 5 -30 7
-61 6 -33 -1 -55 2 -55 8 0 7 -5 6 -14 -1 -10 -9 -16 -9 -21 -1 -5 8 -10 8
-20 0 -10 -8 -15 -8 -20 0 -4 7 -16 10 -26 7 -11 -3 -19 -1 -19 5 0 5 -7 2
-16 -7 -12 -11 -20 -13 -27 -6 -7 7 -14 7 -23 0 -8 -7 -14 -7 -19 1 -3 5 -16
10 -28 10 -12 0 -35 7 -51 15 -23 12 -32 13 -44 3 -12 -10 -16 -10 -19 0 -3 6
-11 12 -19 12 -8 0 -14 5 -14 10 0 6 -12 10 -27 11 -16 0 -37 4 -48 8 -13 5
-25 3 -34 -7 -13 -12 -16 -12 -28 4 -7 9 -25 19 -40 20 -15 2 -29 8 -31 14 -2
5 -14 7 -28 4 -15 -4 -24 -2 -24 6 0 6 -4 8 -10 5 -5 -3 -10 -1 -10 6 0 10 -3
10 -12 1 -9 -9 -14 -7 -24 5 -10 15 -14 15 -28 4 -14 -12 -19 -11 -36 4 -11
10 -17 22 -14 26 5 9 -36 14 -85 11 -32 -2 -81 25 -81 44 0 13 -3 14 -15 4
-12 -10 -16 -8 -23 11 l-9 23 -14 -22 c-18 -29 -32 -28 -24 1 4 12 3 17 -2 10
-4 -6 -23 -13 -40 -16 -26 -4 -33 -2 -34 11 0 11 -3 12 -6 5 -3 -10 -12 -9
-36 4 -18 8 -34 19 -37 23 -3 4 -16 13 -30 20 -77 39 131 -109 228 -162 40
-22 71 -42 69 -44 -12 -13 -332 193 -332 213 0 7 -7 18 -15 25 -12 11 -12 11
-1 -4 7 -10 10 -18 6 -18 -24 0 -227 196 -277 268 l-16 23 -53 -27 c-196 -98
-378 -219 -654 -435 -22 -17 -11 -3 25 31 135 130 364 293 556 396 57 30 104
58 104 61 0 3 -9 17 -20 32 -35 51 -109 205 -136 289 -21 63 -31 82 -45 82
-10 0 -87 -18 -171 -39 -242 -63 -490 -151 -660 -237 -38 -19 -72 -33 -75 -30
-7 7 221 120 346 171 123 50 287 103 451 144 63 16 114 33 113 37 -15 83 -23
217 -17 292 l6 92 -35 0 c-58 0 -325 -30 -457 -51 -103 -16 -317 -63 -388 -85
-14 -4 -13 -3 2 6 27 18 196 65 334 94 144 30 304 53 443 62 l105 6 18 90 c17
81 143 467 195 596 12 29 17 51 11 47 -5 -3 -10 -10 -10 -16 0 -25 -44 -99
-59 -99 -14 0 -14 -2 -1 -10 24 -15 -57 -12 -140 5 -346 73 -618 285 -775 604
-83 169 -114 297 -122 501 -6 177 7 279 58 445 108 350 364 648 677 785 586
259 1196 -80 1433 -795 18 -55 34 -102 36 -104 1 -2 47 15 100 39 117 52 235
92 364 126 115 29 309 64 362 64 l37 0 -2 188 c-1 103 -4 152 -5 109 -3 -68
-6 -77 -18 -67 -17 14 -20 34 -4 24 8 -4 8 -1 1 13 -6 10 -13 37 -16 59 -11
81 -18 120 -26 139 -14 35 -18 65 -9 70 9 6 1 60 -13 89 -6 10 -6 16 -1 13 5
-3 9 3 9 13 0 10 -3 17 -7 14 -4 -2 -12 3 -19 11 -7 8 -8 15 -3 15 13 0 9 41
-6 69 -7 12 -9 26 -6 31 3 5 1 11 -5 15 -5 3 -10 17 -10 30 0 14 -9 41 -20 60
-11 20 -18 40 -15 46 4 5 2 9 -4 9 -6 0 -7 7 -4 17 4 11 3 14 -5 9 -8 -4 -10
-2 -6 7 3 8 -8 25 -25 39 -19 16 -26 29 -20 35 12 12 1 45 -12 37 -5 -3 -9 -2
-10 3 0 4 -2 16 -4 26 -2 9 1 15 6 11 5 -3 9 -1 9 5 0 13 -35 32 -44 24 -3 -3
-6 2 -6 13 0 16 -2 17 -10 4 -8 -12 -10 -10 -11 10 0 14 -3 19 -6 12 -5 -12
-46 11 -82 46 -7 7 -20 11 -27 8 -15 -6 -157 34 -162 45 -2 4 -12 5 -22 2 -11
-3 -20 0 -20 6 0 5 -6 8 -13 5 -7 -2 -28 9 -45 26 -18 16 -35 30 -39 29 -23
-4 -31 3 -26 22 4 14 1 20 -8 19 -27 -4 -37 0 -42 20 -3 11 -12 20 -21 20 -9
0 -16 6 -16 14 0 7 -10 25 -21 40 -12 15 -19 30 -15 33 3 4 -1 17 -9 29 -9 15
-11 25 -5 29 6 4 8 11 4 16 -3 5 -7 39 -9 76 -2 38 -8 69 -15 73 -7 4 -9 13
-5 19 4 7 -1 23 -10 38 -10 14 -12 22 -4 18 8 -6 10 -4 5 4 -5 7 -14 10 -22 7
-7 -3 -16 -1 -19 4 -3 4 1 10 7 13 9 3 6 12 -10 28 -19 20 -24 22 -32 9 -8
-13 -11 -12 -23 4 -12 17 -15 17 -29 2 -9 -9 -20 -16 -24 -16 -3 0 -14 -8 -23
-19 -9 -10 -29 -20 -46 -23 -16 -3 -39 -9 -49 -13 -14 -6 -17 -5 -11 4 4 8 -2
7 -17 -3 -25 -16 -127 -51 -140 -48 -5 1 -8 -2 -8 -8 0 -5 -11 -10 -25 -10
-24 0 -64 -17 -76 -32 -3 -5 -24 -9 -46 -10 -29 -1 -51 -9 -74 -29 -18 -15
-35 -27 -38 -27 -11 2 -65 -26 -105 -54 -21 -16 -45 -28 -53 -28 -7 0 -13 -5
-13 -11 0 -5 -4 -8 -8 -5 -13 8 -93 -32 -119 -60 -12 -14 -23 -22 -23 -18 0 4
-12 -3 -27 -17 -16 -14 -41 -31 -57 -39 -16 -8 -52 -37 -80 -65 -28 -27 -52
-48 -53 -45 -1 3 -12 -4 -25 -15 -14 -11 -31 -21 -38 -23 -8 -2 -21 -11 -29
-21 -9 -10 -33 -26 -54 -36 -21 -10 -45 -29 -54 -41 -8 -13 -21 -24 -27 -24
-17 0 -76 -59 -76 -76 0 -7 -8 -15 -18 -19 -11 -3 -24 -16 -29 -28 -6 -12 -29
-31 -51 -42 -22 -11 -38 -23 -36 -27 3 -5 -2 -8 -10 -8 -9 0 -15 -4 -14 -8 3
-9 -38 -63 -87 -118 -16 -18 -55 -60 -85 -94 -30 -34 -73 -81 -95 -104 -22
-23 -51 -62 -64 -86 -14 -25 -40 -60 -58 -78 -18 -19 -33 -38 -33 -43 0 -15
-52 -91 -81 -121 -15 -14 -26 -28 -24 -30 2 -2 -7 -21 -20 -43 -13 -22 -36
-65 -52 -95 -15 -30 -42 -76 -59 -101 -26 -38 -41 -67 -49 -99 -5 -18 -23 -50
-46 -85 -14 -22 -30 -50 -33 -62 -4 -13 -12 -23 -17 -23 -5 0 -9 -11 -9 -24 0
-14 -4 -28 -10 -31 -5 -3 -10 -14 -10 -24 0 -10 -7 -24 -15 -31 -9 -7 -14 -19
-11 -26 3 -7 1 -16 -3 -19 -8 -4 -20 -49 -27 -95 -1 -8 -14 -40 -29 -70 -15
-30 -30 -68 -32 -85 -3 -16 -8 -32 -11 -35 -4 -3 -8 -16 -10 -30 -1 -13 -6
-27 -10 -30 -5 -3 -9 -14 -9 -25 -2 -42 -12 -87 -23 -99 -5 -8 -7 -22 -3 -31
4 -13 3 -16 -5 -11 -7 4 -10 2 -6 -7 2 -7 -2 -34 -10 -58 -8 -24 -17 -60 -19
-79 -3 -19 -9 -47 -15 -62 -6 -15 -12 -49 -14 -75 -2 -26 -7 -51 -12 -54 -5
-4 -10 -26 -12 -49 -1 -23 -5 -44 -8 -47 -18 -18 25 262 69 451 9 37 14 70 12
73 -6 5 -38 -134 -66 -282 -56 -301 -79 -636 -62 -894 36 -533 161 -1027 376
-1488 49 -104 59 -137 19 -60 -14 26 -29 45 -34 42 -6 -3 -7 2 -5 12 3 10 0 7
-7 -7 -17 -35 -16 -34 -33 -20 -27 22 -28 -13 -1 -74 49 -110 14 -54 -54 87
-199 414 -325 854 -377 1319 -20 189 -23 591 -5 768 7 69 24 195 39 280 41
249 41 272 -2 70 -15 -72 -22 -94 -19 -60 9 91 11 103 23 148 7 23 9 47 6 52
-3 6 -2 10 2 10 8 0 14 30 16 82 1 9 4 15 8 12 4 -2 12 16 18 41 14 55 24 59
16 8 -3 -23 3 -12 15 27 22 74 25 102 5 50 -7 -19 -14 -30 -14 -25 -1 15 45
183 64 234 9 24 14 50 11 58 -3 7 -2 13 2 13 4 0 9 12 10 26 1 15 11 34 22 44
11 10 25 32 31 49 6 18 13 30 15 28 2 -2 -3 -23 -11 -47 -27 -76 -9 -53 24 32
45 112 46 120 16 68 -14 -25 -24 -38 -22 -30 20 74 33 110 40 110 4 0 5 5 2
10 -3 6 -1 10 4 10 6 0 10 3 9 8 -2 4 5 25 14 47 9 22 16 44 16 49 0 5 4 12 9
15 5 3 37 63 72 133 35 70 80 146 101 169 21 23 53 71 71 106 19 36 39 68 46
70 6 3 9 11 6 19 -3 8 0 14 7 14 6 0 9 4 6 8 -2 4 20 34 50 66 30 32 54 63 54
68 0 12 53 92 67 101 7 4 13 13 13 18 0 14 109 119 123 119 6 0 8 3 4 6 -5 6
8 23 100 123 23 25 50 61 60 79 10 17 23 32 30 32 7 0 52 36 100 80 48 44 91
80 96 80 13 0 37 27 30 34 -4 3 -1 6 7 6 11 0 139 91 172 123 28 27 103 77
115 77 7 0 13 5 13 10 0 6 5 10 10 10 6 0 24 15 41 34 17 20 44 38 62 41 18 4
51 23 75 42 23 19 42 31 42 28 0 -4 7 1 16 9 8 9 20 14 25 11 5 -4 9 1 9 9 0
9 3 15 8 15 13 -3 72 23 72 31 0 4 8 10 18 14 9 3 24 10 32 14 28 17 95 46
103 44 4 -1 7 2 7 8 0 6 3 9 8 8 4 -2 32 7 62 19 66 26 93 36 100 38 3 1 23 9
44 18 22 10 50 18 63 19 13 2 23 5 23 9 0 3 7 6 15 7 8 1 22 3 30 4 8 1 15 5
15 9 0 5 6 6 14 3 8 -3 17 0 21 5 3 6 11 9 16 6 5 -4 9 -3 9 2 0 4 17 9 37 10
42 2 227 49 257 65 22 12 80 18 69 7 -5 -4 -46 -17 -93 -29 -110 -28 -363
-111 -357 -117 3 -2 52 12 110 31 104 35 418 114 532 134 33 6 89 16 125 23
36 7 86 13 112 14 27 0 53 6 59 12 6 6 18 9 25 6 8 -3 14 0 14 6 0 6 13 17 29
25 18 10 30 26 34 45 4 17 15 38 26 47 11 9 17 23 14 31 -4 9 0 11 11 7 10 -4
18 1 23 12 9 25 29 45 37 37 3 -4 6 -1 6 6 0 7 9 24 20 38 11 14 20 34 20 45
0 11 5 16 10 13 6 -3 10 1 10 10 0 10 5 13 12 9 7 -5 8 -3 3 6 -4 7 -3 15 2
19 5 3 26 29 48 56 54 69 78 92 93 87 6 -2 12 2 12 8 0 7 7 10 15 6 8 -3 21 4
28 15 8 11 25 22 37 24 12 2 25 7 28 9 3 3 9 3 14 0 5 -3 23 -7 39 -8z m1089
-627 c93 -15 287 -65 415 -106 235 -75 463 -177 691 -309 54 -31 110 -63 124
-71 l25 -15 -24 19 c-58 42 -64 53 -18 28 68 -37 222 -150 222 -163 0 -6 36
-39 80 -73 91 -69 164 -131 248 -207 32 -29 62 -50 66 -47 5 2 14 -2 21 -10 7
-8 9 -15 4 -15 -5 0 18 -27 51 -60 32 -32 61 -57 65 -55 4 2 27 -17 51 -43 35
-38 37 -40 7 -12 -64 57 -43 24 48 -78 48 -53 130 -154 182 -224 52 -70 98
-125 103 -123 4 3 11 0 15 -6 5 -8 3 -9 -6 -4 -8 5 -11 3 -8 -6 3 -8 10 -14
16 -14 5 0 14 -4 19 -9 5 -5 3 -6 -4 -2 -22 12 -15 -3 51 -107 304 -486 502
-1037 580 -1612 36 -262 43 -624 16 -830 l-7 -60 -2 50 c-1 43 -3 47 -13 30
-17 -28 -38 -49 -38 -36 0 6 -5 11 -11 11 -6 0 -8 -9 -4 -20 4 -11 2 -20 -4
-20 -6 0 -11 5 -11 12 0 6 -3 8 -6 5 -4 -4 -1 -13 6 -22 7 -9 10 -18 6 -22 -3
-3 -6 -1 -6 6 0 7 -4 9 -10 6 -5 -3 -10 -23 -11 -43 -1 -20 -5 -48 -10 -62 -6
-18 -7 -12 -4 25 48 510 11 959 -121 1448 -96 355 -251 715 -442 1027 -127
208 -354 508 -379 503 -6 -1 -75 66 -153 150 l-142 152 146 -147 c80 -81 146
-144 146 -140 0 5 -69 80 -154 167 -105 109 -157 155 -166 150 -8 -5 -11 -4
-6 3 13 21 -372 330 -395 316 -7 -4 -9 -3 -6 3 12 19 -294 210 -314 197 -8 -5
-9 -3 -4 6 6 10 4 12 -9 7 -10 -4 -15 -3 -11 3 8 13 -260 146 -430 213 -159
62 -346 124 -482 158 -59 15 -93 29 -93 37 0 7 4 11 8 8 4 -2 8 3 9 13 1 10
-9 22 -25 29 -26 10 -26 11 8 7 19 -3 64 -10 100 -16z m-135 -29 c3 -5 -1 -10
-10 -10 -9 0 -13 5 -10 10 3 6 8 10 10 10 2 0 7 -4 10 -10z m655 -86 c0 -2 -7
-4 -15 -4 -8 0 -15 4 -15 10 0 5 7 7 15 4 8 -4 15 -8 15 -10z m55 -24 c3 -6
-1 -7 -9 -4 -18 7 -21 14 -7 14 6 0 13 -4 16 -10z m166 -57 c25 -13 55 -25 65
-28 26 -5 82 -34 89 -46 4 -5 11 -6 17 -3 6 4 8 3 5 -3 -3 -5 10 -15 29 -22
18 -7 34 -17 34 -22 0 -5 -31 6 -68 25 -37 19 -113 53 -167 76 -55 23 -104 46
-110 51 -18 17 59 -3 106 -28z m299 -153 c14 -11 30 -20 36 -20 6 0 19 -10 30
-22 15 -17 8 -15 -41 12 -70 39 -85 50 -64 50 7 0 25 -9 39 -20z m-260 -35
c17 -9 30 -18 30 -21 0 -4 -59 23 -69 32 -10 9 13 3 39 -11z m845 -362 c67
-65 54 -62 -30 7 -41 34 -75 64 -75 66 0 11 62 -33 105 -73z m150 -137 l50
-49 -63 53 c-34 28 -65 57 -69 64 -10 17 26 -13 82 -68z m-175 -62 c34 -36 34
-37 5 -17 -16 12 -41 33 -55 48 -21 23 -21 26 -5 17 11 -6 36 -27 55 -48z
m541 -311 c13 -16 12 -17 -3 -4 -10 7 -18 15 -18 17 0 8 8 3 21 -13z m30 -40
c13 -16 12 -17 -3 -4 -10 7 -18 15 -18 17 0 8 8 3 21 -13z m-57 -198 c46 -60
111 -153 146 -205 34 -52 70 -106 80 -120 25 -36 103 -180 97 -180 -2 0 -21
29 -42 65 -21 36 -42 65 -46 65 -4 0 -10 11 -13 24 -11 45 -151 247 -312 451
-26 33 -35 49 -20 35 15 -14 65 -74 110 -135z m-924 -259 c0 -3 -4 -8 -10 -11
-5 -3 -10 -1 -10 4 0 6 5 11 10 11 6 0 10 -2 10 -4z m-2483 -243 c-3 -10 -5
-4 -5 12 0 17 2 24 5 18 2 -7 2 -21 0 -30z m3771 -78 c-3 -3 -9 2 -12 12 -6
14 -5 15 5 6 7 -7 10 -15 7 -18z m-1550 -30 c-3 -3 -9 2 -12 12 -6 14 -5 15 5
6 7 -7 10 -15 7 -18z m1587 -36 c30 -57 46 -99 40 -99 -4 0 -30 49 -56 108
-25 58 -15 53 16 -9z m65 -144 c0 -5 -5 -3 -10 5 -5 8 -10 20 -10 25 0 6 5 3
10 -5 5 -8 10 -19 10 -25z m29 -75 c0 -13 -1 -13 -8 0 -5 8 -12 26 -15 40 l-7
25 15 -25 c9 -14 15 -32 15 -40z m-7802 -967 c-3 -10 -5 -2 -5 17 0 19 2 27 5
18 2 -10 2 -26 0 -35z m-10 -85 c-3 -8 -6 -5 -6 6 -1 11 2 17 5 13 3 -3 4 -12
1 -19z m6338 -66 c-3 -3 -11 0 -18 7 -9 10 -8 11 6 5 10 -3 15 -9 12 -12z
m-6348 -34 c-3 -8 -6 -5 -6 6 -1 11 2 17 5 13 3 -3 4 -12 1 -19z m6362 -12 c9
-10 8 -15 -4 -20 -8 -3 -15 -4 -15 -2 0 3 -3 11 -6 20 -8 20 9 21 25 2z
m-6212 -213 c-2 -21 -4 -4 -4 37 0 41 2 58 4 38 2 -21 2 -55 0 -75z m9099
-1199 c66 -32 84 -111 36 -160 -15 -16 -96 -82 -180 -148 -663 -513 -1237
-1129 -1769 -1896 -282 -407 -570 -899 -804 -1373 -117 -238 -159 -277 -266
-248 -54 15 -79 36 -148 128 -217 286 -408 519 -560 683 -172 186 -173 213
-16 373 137 140 171 161 255 155 77 -5 101 -22 309 -212 75 -69 141 -126 145
-126 4 0 31 44 61 98 240 428 559 879 890 1257 156 178 505 524 676 669 344
293 736 561 1055 721 188 94 251 110 316 79z m55 -197 c-7 -19 -20 -42 -29
-51 -14 -12 -12 -3 8 38 28 60 38 66 21 13z m-71 -80 c0 -2 -10 -12 -22 -23
l-23 -19 19 23 c18 21 26 27 26 19z m-60 -52 c-7 -9 -32 -30 -54 -47 -35 -26
-34 -24 9 15 52 48 67 58 45 32z m-2901 -46 c-15 -30 -185 -198 -239 -238 -32
-23 -36 -25 -15 -6 73 66 191 184 222 223 39 46 50 54 32 21z m2791 -42 c0 -2
-10 -12 -22 -23 l-23 -19 19 23 c18 21 26 27 26 19z m-3027 -32 c-3 -9 -8 -14
-10 -11 -3 3 -2 9 2 15 9 16 15 13 8 -4z m2977 -9 c0 -2 -30 -29 -67 -61 l-68
-57 65 61 c64 60 70 65 70 57z m-6923 -82 c-15 -8 -53 -33 -85 -55 -48 -34
-63 -52 -94 -117 -21 -42 -35 -85 -33 -94 16 -57 16 -64 5 -45 -14 22 -30 22
-30 -2 0 -10 -7 -24 -15 -31 -8 -7 -15 -18 -14 -24 1 -6 -6 -28 -15 -49 -9
-22 -18 -69 -19 -108 -1 -46 -6 -69 -14 -69 -7 0 -17 -18 -23 -40 -6 -22 -16
-40 -22 -40 -6 0 -8 -3 -5 -6 4 -4 -2 -15 -13 -24 -23 -20 -52 -133 -44 -170
4 -20 3 -22 -5 -9 -6 9 -15 37 -21 63 -15 66 1 147 49 259 22 51 49 137 60
192 42 206 118 302 291 367 56 21 84 22 47 2z m6693 -121 c-151 -135 -572
-564 -706 -717 -410 -470 -814 -1037 -1118 -1568 -37 -65 -70 -118 -72 -118
-14 0 222 393 392 653 169 256 340 493 537 742 153 192 416 484 612 680 145
145 425 405 435 405 3 -1 -33 -35 -80 -77z m-2800 13 c0 -2 -8 -10 -17 -17
-16 -13 -17 -12 -4 4 13 16 21 21 21 13z m431 -23 c13 -16 12 -17 -3 -4 -10 7
-18 15 -18 17 0 8 8 3 21 -13z m-5843 -98 c-3 -3 -9 2 -12 12 -6 14 -5 15 5 6
7 -7 10 -15 7 -18z m4742 -25 c0 -5 -5 -10 -11 -10 -5 0 -7 5 -4 10 3 6 8 10
11 10 2 0 4 -4 4 -10z m-3044 -269 c101 -69 151 -106 114 -86 -68 37 -255 174
-295 216 l-50 53 61 -55 c33 -30 110 -88 170 -128z m494 144 c14 -8 21 -14 15
-14 -5 0 -21 6 -35 14 -14 8 -20 14 -15 14 6 0 21 -6 35 -14z m1021 -8 c-10
-9 -11 -8 -5 6 3 10 9 15 12 12 3 -3 0 -11 -7 -18z m-341 -17 c0 -5 -10 -10
-22 -9 -22 0 -22 1 -3 9 11 5 21 9 23 9 1 1 2 -3 2 -9z m-959 -262 l24 -20
-31 17 c-17 10 -41 26 -55 37 l-24 20 31 -17 c17 -10 41 -26 55 -37z m140 -90
l24 -20 -31 17 c-17 10 -41 26 -55 37 l-24 20 31 -17 c17 -10 41 -26 55 -37z
m89 -64 c0 -3 -13 4 -30 16 -16 12 -30 24 -30 26 0 3 14 -4 30 -16 17 -12 30
-24 30 -26z m-985 -194 c-3 -5 -2 -10 3 -10 12 0 12 -32 0 -47 -5 -7 -7 -17
-4 -22 4 -5 -7 -25 -24 -44 -33 -38 -40 -58 -13 -36 9 8 5 -2 -10 -23 -16 -20
-35 -39 -43 -42 -9 -3 -14 -12 -11 -19 2 -6 -9 -24 -25 -39 -15 -14 -28 -33
-28 -41 0 -21 -27 -42 -33 -25 -2 7 -8 1 -12 -14 -4 -16 -13 -28 -21 -28 -7 0
-11 -6 -8 -14 3 -8 -8 -23 -26 -36 -17 -12 -29 -28 -26 -35 2 -7 -2 -16 -10
-19 -8 -3 -14 -12 -14 -20 0 -8 -6 -19 -12 -23 -7 -4 -22 -18 -32 -31 -20 -23
-20 -23 0 -17 18 6 18 6 -1 -6 -32 -20 -42 -33 -39 -52 1 -9 -2 -15 -7 -12 -5
4 -17 -11 -26 -32 -10 -21 -22 -41 -26 -44 -11 -8 -47 -77 -47 -91 0 -6 -8
-20 -17 -30 -9 -10 -17 -26 -18 -36 -1 -9 -10 -34 -19 -54 -9 -21 -16 -45 -16
-53 0 -9 -4 -14 -10 -10 -5 3 -7 13 -4 23 5 14 3 14 -10 -2 -9 -11 -16 -29
-16 -40 0 -15 -3 -17 -9 -8 -8 13 -32 -38 -47 -101 -3 -15 -8 -26 -11 -24 -2
3 5 41 16 85 74 290 254 650 431 866 68 84 203 216 220 216 6 0 8 -4 5 -10z
m4923 -65 c92 -18 212 -53 212 -62 0 -3 -33 -50 -74 -104 -41 -54 -78 -105
-83 -114 -8 -13 -17 -14 -54 -6 -24 5 -94 13 -154 17 -489 30 -958 -237 -1180
-672 -169 -330 -178 -710 -25 -1040 160 -347 477 -598 850 -674 91 -19 127
-21 275 -17 143 4 185 9 265 31 224 63 404 169 571 335 195 196 318 432 359
691 15 98 12 316 -6 411 -20 109 -59 248 -90 321 -13 31 -24 60 -24 62 0 3 14
20 31 38 17 18 49 60 71 93 36 53 39 63 30 88 -6 15 -9 27 -7 27 2 0 24 -28
48 -62 93 -131 179 -337 219 -520 29 -139 32 -430 5 -555 -34 -157 -68 -259
-132 -388 -161 -326 -431 -583 -810 -773 -606 -302 -1447 -466 -2400 -465
-686 0 -1222 69 -1719 223 -93 28 -143 50 -86 37 76 -18 85 -19 70 -8 -13 9
-12 13 8 26 12 9 22 22 22 28 0 7 -4 6 -10 -3 -6 -9 -10 -10 -10 -3 0 16 50
54 64 47 6 -3 -5 9 -24 26 -19 17 -29 30 -21 28 7 -2 15 2 18 8 2 6 -40 27
-99 49 -101 37 -144 59 -97 49 20 -5 21 -4 9 6 -13 10 -13 11 2 6 128 -40 465
-111 628 -130 648 -79 1418 28 2025 279 76 31 90 34 104 22 60 -51 30 -15 -53
64 -201 191 -335 403 -414 651 -57 178 -67 246 -67 453 1 172 3 201 29 309 55
235 137 412 278 598 288 381 764 609 1238 593 69 -2 162 -11 208 -20z m-3379
-598 c-25 -16 -48 -49 -85 -124 -28 -57 -54 -100 -57 -96 -4 3 -7 -1 -7 -10 0
-9 -5 -17 -11 -17 -6 0 -8 7 -5 16 3 8 -1 26 -10 40 -9 13 -13 24 -10 24 4 0
1 6 -6 14 -19 20 -50 13 -107 -23 -33 -21 -57 -30 -70 -26 -11 3 -22 1 -26 -4
-4 -7 1 -9 12 -5 16 5 16 4 -1 -10 -10 -8 -22 -13 -26 -11 -5 3 -22 -9 -40
-25 -34 -32 -51 -40 -30 -15 7 8 8 15 2 15 -5 0 -15 -6 -21 -14 -7 -8 -23 -17
-36 -20 -14 -4 -25 -11 -25 -16 0 -5 -9 -7 -20 -5 -11 2 -27 -3 -35 -11 -8 -9
-15 -12 -15 -8 0 4 -9 -1 -19 -10 -11 -10 -25 -19 -33 -20 -22 -5 -80 -35
-122 -62 -33 -22 -38 -23 -32 -8 5 13 -2 10 -23 -10 -17 -17 -31 -24 -31 -17
0 8 -9 7 -29 -5 -17 -10 -27 -22 -24 -27 3 -6 1 -7 -6 -3 -16 10 -282 -149
-407 -243 -23 -17 -44 -28 -47 -25 -3 4 -20 -4 -36 -16 -17 -12 -31 -18 -31
-13 0 4 -30 -22 -67 -57 l-66 -65 49 59 c197 238 614 496 1228 761 222 96 271
113 320 114 l39 1 -34 -23z m3570 -934 c-39 -73 -76 -128 -49 -73 30 59 82
150 87 150 2 0 -15 -35 -38 -77z m-99 -183 c-17 -33 -33 -60 -35 -60 -3 0 8
27 25 60 17 33 33 60 35 60 3 0 -8 -27 -25 -60z m-4191 -1305 c74 -30 140 -54
146 -51 7 2 12 -2 12 -9 0 -10 -13 -9 -56 7 -72 27 -253 107 -260 115 -7 8 -8
8 158 -62z"/>
<path d="M6044 11498 c-19 -23 -19 -23 1 -7 11 9 27 19 35 22 13 5 13 6 -1 6
-9 1 -24 -9 -35 -21z"/>
<path d="M5734 11133 c4 -7 2 -13 -3 -13 -15 0 -14 -17 2 -23 15 -6 17 27 2
40 -4 5 -5 2 -1 -4z"/>
<path d="M5102 10840 c-80 -24 -97 -32 -52 -24 45 8 150 42 130 42 -8 0 -44
-8 -78 -18z"/>
<path d="M4975 10800 c-13 -6 -15 -9 -5 -9 8 0 22 4 30 9 18 12 2 12 -25 0z"/>
<path d="M4800 10740 c-8 -5 -10 -10 -5 -10 6 0 17 5 25 10 8 5 11 10 5 10 -5
0 -17 -5 -25 -10z"/>
<path d="M4750 10720 c-8 -5 -10 -10 -5 -10 6 0 17 5 25 10 8 5 11 10 5 10 -5
0 -17 -5 -25 -10z"/>
<path d="M4650 10680 c-8 -5 -10 -10 -5 -10 6 0 17 5 25 10 8 5 11 10 5 10 -5
0 -17 -5 -25 -10z"/>
<path d="M4600 10660 c-8 -5 -10 -10 -5 -10 6 0 17 5 25 10 8 5 11 10 5 10 -5
0 -17 -5 -25 -10z"/>
<path d="M4450 10590 c-41 -21 -70 -39 -65 -39 6 0 44 18 85 39 41 21 71 39
65 39 -5 0 -44 -18 -85 -39z"/>
<path d="M4298 10514 c-38 -19 -68 -37 -68 -39 0 -3 32 11 70 30 39 19 70 37
70 40 0 7 3 8 -72 -31z"/>
<path d="M4129 10419 c-46 -27 -88 -55 -94 -61 -5 -7 4 -3 20 7 17 10 60 36
98 58 58 34 76 47 64 47 -2 0 -42 -23 -88 -51z"/>
<path d="M7201 10353 c0 -20 -9 -37 -23 -47 -18 -13 -19 -16 -6 -16 23 0 40
34 35 68 -4 25 -4 25 -6 -5z"/>
<path d="M3705 10299 c-81 -61 -129 -104 -65 -58 111 80 161 120 148 119 -2 0
-39 -28 -83 -61z"/>
<path d="M3819 10213 c-13 -16 -12 -17 4 -4 9 7 17 15 17 17 0 8 -8 3 -21 -13z"/>
<path d="M3569 10193 c-13 -16 -12 -17 4 -4 9 7 17 15 17 17 0 8 -8 3 -21 -13z"/>
<path d="M3779 10183 c-13 -16 -12 -17 4 -4 9 7 17 15 17 17 0 8 -8 3 -21 -13z"/>
<path d="M3475 10114 l-60 -56 63 53 c55 46 68 59 60 59 -2 0 -30 -25 -63 -56z"/>
<path d="M3734 10148 l-19 -23 23 19 c21 18 27 26 19 26 -2 0 -12 -10 -23 -22z"/>
<path d="M3574 10017 c-202 -177 -454 -447 -563 -604 -44 -63 -20 -37 54 57
141 179 306 354 480 508 158 140 171 152 164 152 -3 0 -63 -51 -135 -113z"/>
<path d="M3359 10013 l-34 -38 38 34 c20 19 37 36 37 38 0 8 -8 0 -41 -34z"/>
<path d="M3192 9853 c-99 -108 -188 -210 -141 -163 121 120 260 270 252 270
-6 0 -56 -48 -111 -107z"/>
<path d="M2973 9603 c-115 -139 -350 -483 -330 -483 2 0 35 48 73 108 85 133
166 248 244 347 66 82 75 104 13 28z"/>
<path d="M3885 9370 c-32 -6 -20 -7 53 -9 98 -1 185 -17 176 -32 -3 -5 -10 -7
-15 -4 -5 3 -6 -1 -3 -9 6 -16 52 -50 69 -52 24 -2 65 -29 66 -43 0 -13 2 -13
6 -2 3 8 -1 19 -10 26 -9 6 -17 18 -19 26 -2 7 -10 20 -18 27 -9 8 -2 7 18 -3
18 -9 30 -20 27 -25 -3 -6 0 -7 8 -5 7 3 22 -4 33 -16 19 -22 19 -22 -1 -11
-18 9 -21 7 -23 -16 -1 -14 -7 -29 -13 -33 -8 -5 -8 -8 1 -11 6 -2 13 -15 13
-28 2 -23 39 -70 54 -69 4 0 9 -4 11 -10 2 -7 -4 -9 -15 -5 -14 4 -15 4 -4 -4
7 -5 11 -14 7 -20 -3 -6 -1 -14 5 -18 8 -4 9 -3 5 4 -4 7 -3 12 2 12 18 0 21
-29 6 -45 -14 -13 -14 -17 0 -31 10 -10 14 -24 10 -40 -4 -14 -2 -24 5 -24 6
0 11 -14 11 -31 0 -21 -4 -28 -12 -23 -7 4 -5 -2 5 -13 9 -11 15 -27 12 -36
-4 -8 -2 -18 4 -22 6 -3 11 -13 11 -21 0 -8 -4 -12 -10 -9 -15 9 -12 -2 6 -19
13 -14 13 -16 1 -16 -11 0 -14 -10 -13 -38 1 -20 5 -43 10 -50 4 -6 4 -12 -1
-12 -4 0 -8 -16 -9 -35 0 -19 3 -35 8 -35 10 0 -10 -42 -25 -51 -5 -4 -9 -18
-9 -33 0 -14 -6 -26 -12 -26 -7 0 -7 -3 -1 -8 13 -9 19 -35 6 -28 -5 3 -9 -4
-9 -17 0 -28 -6 -55 -15 -63 -4 -4 -2 -13 5 -21 6 -7 8 -16 4 -20 -3 -3 -6 -1
-6 5 0 7 -4 12 -10 12 -5 0 -6 -7 -3 -17 4 -10 2 -14 -4 -10 -6 4 -10 -1 -9
-10 0 -10 -4 -18 -11 -18 -22 0 -26 -15 -10 -39 9 -13 12 -26 7 -28 -4 -2 -10
-10 -12 -18 -2 -8 -7 -18 -13 -22 -6 -5 -5 -8 3 -8 10 0 10 -5 1 -21 -6 -12
-7 -19 -2 -16 5 4 10 -8 10 -24 0 -24 -4 -30 -18 -26 -12 3 -16 0 -12 -9 3 -8
0 -14 -7 -14 -6 0 -8 -5 -5 -10 4 -6 11 -7 17 -4 6 4 3 -4 -8 -18 -14 -19 -22
-23 -31 -16 -10 8 -13 6 -13 -6 0 -9 5 -16 11 -16 6 0 7 -5 2 -12 -4 -7 -8
-35 -8 -61 0 -35 -5 -51 -17 -58 -10 -5 -15 -16 -12 -24 4 -8 1 -15 -7 -15 -7
0 -9 -3 -6 -6 4 -4 13 -1 22 6 9 8 15 8 15 2 0 -6 -9 -14 -20 -17 -12 -4 -19
-14 -18 -23 2 -9 -3 -16 -9 -14 -16 3 -16 -1 -2 -32 7 -14 16 -23 20 -20 5 3
9 -2 9 -10 0 -9 -4 -16 -10 -16 -5 0 -9 -10 -8 -22 0 -13 0 -27 -2 -33 -5 -20
0 -36 10 -30 6 3 7 -1 4 -9 -3 -9 -10 -16 -16 -16 -5 0 -6 5 -3 10 3 6 1 10
-4 10 -6 0 -10 -10 -8 -22 1 -15 -3 -22 -11 -20 -8 1 -11 -2 -7 -8 3 -5 1 -10
-5 -10 -6 0 -8 -5 -5 -10 4 -6 10 -8 14 -6 4 3 8 -1 8 -9 0 -8 -4 -12 -9 -9
-8 5 -12 -9 -9 -36 2 -13 1 -13 -8 0 -16 23 -24 -10 -11 -45 8 -21 8 -30 0
-35 -8 -5 -7 -9 2 -13 10 -3 23 15 43 62 47 112 151 315 210 413 59 97 207
299 244 332 20 18 21 28 21 215 0 302 -34 487 -119 666 -69 144 -163 246 -286
307 -83 42 -219 64 -300 48z m450 -170 c10 -11 16 -20 13 -20 -3 0 -13 9 -23
20 -10 11 -16 20 -13 20 3 0 13 -9 23 -20z m66 -82 c15 -28 5 -21 -21 15 -15
20 -17 27 -6 18 9 -8 22 -23 27 -33z"/>
<path d="M2930 9300 c-22 -33 -38 -60 -36 -60 3 0 24 27 46 60 22 33 38 60 36
60 -3 0 -24 -27 -46 -60z"/>
<path d="M2872 9218 c-40 -51 -215 -358 -208 -366 3 -2 19 24 36 58 17 34 67
120 110 191 72 116 91 153 62 117z"/>
<path d="M9020 9196 c0 -2 8 -10 18 -17 15 -13 16 -12 3 4 -13 16 -21 21 -21
13z"/>
<path d="M2615 9080 c-9 -16 -13 -30 -11 -30 3 0 12 14 21 30 9 17 13 30 11
30 -3 0 -12 -13 -21 -30z"/>
<path d="M2509 8879 c-44 -89 -79 -163 -77 -165 2 -2 41 71 86 161 45 91 80
165 77 165 -3 0 -41 -72 -86 -161z"/>
<path d="M2567 8663 c-52 -116 -148 -374 -108 -288 25 52 140 339 137 342 -2
2 -15 -23 -29 -54z"/>
<path d="M2336 8485 c-9 -26 -7 -32 5 -12 6 10 9 21 6 23 -2 3 -7 -2 -11 -11z"/>
<path d="M2286 8343 c-20 -59 -36 -113 -35 -118 0 -6 18 41 40 104 21 63 37
116 35 118 -2 3 -20 -44 -40 -104z"/>
<path d="M2381 8155 c-13 -42 -21 -78 -19 -80 2 -3 14 30 27 72 12 41 20 77
18 79 -2 3 -14 -30 -26 -71z"/>
<path d="M2201 8044 c0 -11 3 -14 6 -6 3 7 2 16 -1 19 -3 4 -6 -2 -5 -13z"/>
<path d="M2186 7994 c-4 -14 -5 -28 -3 -31 3 -2 8 8 11 23 4 14 5 28 3 31 -3
2 -8 -8 -11 -23z"/>
<path d="M5067 7989 c-117 -17 -239 -98 -322 -214 -48 -67 -81 -135 -66 -135
5 0 31 19 58 42 183 159 400 211 594 143 57 -20 70 -8 44 42 -49 90 -176 140
-308 122z"/>
<path d="M7285 7991 c-50 -14 -78 -28 -120 -58 -40 -30 -85 -97 -72 -109 3 -4
35 2 69 12 91 27 242 24 328 -5 86 -30 161 -73 238 -139 35 -30 66 -51 69 -49
11 11 -20 79 -61 134 -94 129 -227 211 -352 218 -38 2 -82 0 -99 -4z"/>
<path d="M4948 7167 c-66 -19 -153 -74 -202 -128 -73 -81 -133 -219 -95 -219
6 0 39 23 73 52 33 28 95 67 136 87 72 35 79 36 185 36 106 0 113 -1 187 -37
45 -21 101 -59 138 -93 34 -31 67 -54 73 -52 37 13 -29 159 -109 243 -74 76
-164 118 -264 121 -41 2 -96 -3 -122 -10z"/>
<path d="M7315 7164 c-111 -35 -204 -120 -261 -239 -56 -115 -42 -142 39 -69
73 66 132 101 206 124 159 50 330 5 469 -122 49 -45 68 -45 65 1 -3 80 -132
230 -242 283 -81 39 -194 48 -276 22z"/>
<path d="M6661 6264 c0 -11 3 -14 6 -6 3 7 2 16 -1 19 -3 4 -6 -2 -5 -13z"/>
<path d="M6641 6207 c-9 -16 -35 -31 -84 -48 -40 -13 -78 -23 -84 -22 -7 0
-11 -3 -8 -7 3 -4 -3 -14 -12 -21 -9 -8 -30 -32 -46 -54 -21 -28 -27 -33 -22
-16 5 15 4 21 -3 17 -6 -3 -13 -2 -17 4 -7 11 -53 3 -74 -14 -12 -9 -13 -8 -6
4 7 12 6 13 -6 3 -11 -9 -19 -8 -34 3 -17 13 -20 12 -31 -8 -11 -21 -13 -21
-19 -5 -4 9 -14 17 -22 17 -8 0 -12 -4 -9 -9 3 -5 -1 -12 -10 -15 -9 -4 -13
-2 -8 5 4 8 0 7 -15 0 -11 -7 -21 -22 -21 -34 -1 -18 -4 -15 -20 15 -33 61
-87 107 -149 124 -31 9 -67 23 -80 31 -28 18 -23 7 27 -54 30 -38 273 -225
305 -236 8 -2 12 -33 12 -98 0 -84 -3 -99 -28 -141 -58 -99 -159 -151 -292
-150 -128 0 -239 50 -318 142 -30 35 -57 51 -57 34 0 -3 19 -33 42 -66 52 -73
146 -143 229 -169 139 -43 306 -8 417 87 l42 36 35 -30 c130 -115 318 -144
472 -73 74 35 159 112 202 184 32 53 11 46 -52 -17 -62 -62 -127 -98 -220
-122 -158 -39 -354 50 -392 180 -15 49 -20 152 -9 191 3 11 22 27 42 36 53 22
245 172 285 222 37 46 61 86 54 93 -2 2 -9 -6 -16 -19z"/>
<path d="M6596 6205 c4 -8 11 -15 16 -15 6 0 5 6 -2 15 -7 8 -14 15 -16 15 -2
0 -1 -7 2 -15z"/>
<path d="M8558 6113 c7 -3 16 -2 19 1 4 3 -2 6 -13 5 -11 0 -14 -3 -6 -6z"/>
<path d="M7860 5415 c-11 -13 -10 -14 4 -9 9 3 16 10 16 15 0 13 -6 11 -20 -6z"/>
<path d="M6425 4929 c31 -56 82 -213 126 -384 18 -71 35 -123 37 -114 10 52
-121 463 -165 516 -22 27 -22 27 2 -18z"/>
<path d="M5941 4643 c-17 -59 -33 -124 -36 -143 -3 -26 -1 -23 11 15 32 106
64 228 61 232 -2 2 -18 -45 -36 -104z"/>
<path d="M8570 10456 c0 -8 162 -117 167 -112 3 2 -28 26 -69 53 -89 60 -98
66 -98 59z"/>
<path d="M10305 6829 c-4 -6 -5 -12 -2 -15 2 -3 7 2 10 11 7 17 1 20 -8 4z"/>
<path d="M4788 1563 c7 -3 16 -2 19 1 4 3 -2 6 -13 5 -11 0 -14 -3 -6 -6z"/>
<path d="M4978 1473 c7 -3 16 -2 19 1 4 3 -2 6 -13 5 -11 0 -14 -3 -6 -6z"/>
<path d="M3919 3043 l-24 -28 28 24 c25 23 32 31 24 31 -2 0 -14 -12 -28 -27z"/>
</g>
</svg>
